<svg width="60" height="60" viewBox="0 0 60 60" fill="none" xmlns="http://www.w3.org/2000/svg">
<path d="M30 60C46.569 60 60 46.569 60 30C60 13.431 46.569 0 30 0C13.431 0 0 13.431 0 30C0 46.569 13.431 60 30 60Z" fill="url(#paint0_linear)"/>
<path d="M16.837 27.422C19.26 27.422 21.224 25.457 21.224 23.034C21.224 20.611 19.26 18.646 16.837 18.646C14.414 18.646 12.449 20.611 12.449 23.034C12.449 25.457 14.414 27.422 16.837 27.422Z" fill="#AB4A62"/>
<path d="M43.1629 27.422C45.5859 27.422 47.5509 25.457 47.5509 23.034C47.5509 20.611 45.5859 18.646 43.1629 18.646C40.7399 18.646 38.7749 20.611 38.7749 23.034C38.7749 25.457 40.7399 27.422 43.1629 27.422Z" fill="#AB4A62"/>
<path fill-rule="evenodd" clip-rule="evenodd" d="M41.7591 39.0499C39.6471 43.4649 35.2131 46.4969 30.0001 46.4969C24.7891 46.4969 20.2941 43.4109 18.2361 39.0389L21.6911 37.4129C23.1441 40.4999 26.3261 42.6789 30.0001 42.6789C33.6721 42.6789 36.8061 40.5559 38.3151 37.4019L41.7591 39.0499Z" fill="#AB4A62"/>
<defs>
<linearGradient id="paint0_linear" x1="-1.82537e-07" y1="30" x2="48.077" y2="6.058" gradientUnits="userSpaceOnUse">
<stop stop-color="#FD98BB"/>
<stop offset="1" stop-color="#FFB2AD"/>
</linearGradient>
</defs>
</svg>
