<svg width="60" height="60" viewBox="0 0 60 60" fill="none" xmlns="http://www.w3.org/2000/svg">
<path opacity="0.5" d="M30 60C46.5685 60 60 46.569 60 30C60 13.431 46.5685 0 30 0C13.4315 0 0 13.431 0 30C0 46.569 13.4315 60 30 60Z" fill="url(#paint0_linear)"/>
<path d="M16.8348 27.422C19.258 27.422 21.2224 25.457 21.2224 23.034C21.2224 20.611 19.258 18.646 16.8348 18.646C14.4116 18.646 12.4473 20.611 12.4473 23.034C12.4473 25.457 14.4116 27.422 16.8348 27.422Z" fill="#A1A1A1"/>
<path d="M43.163 27.422C45.5861 27.422 47.5505 25.457 47.5505 23.034C47.5505 20.611 45.5861 18.646 43.163 18.646C40.7398 18.646 38.7754 20.611 38.7754 23.034C38.7754 25.457 40.7398 27.422 43.163 27.422Z" fill="#A1A1A1"/>
<path fill-rule="evenodd" clip-rule="evenodd" d="M18.239 44.8511C20.3506 40.4351 24.785 37.4031 29.9978 37.4031C35.2086 37.4031 39.7043 40.4891 41.7617 44.8611L38.307 46.4871C36.8543 43.4001 33.6718 41.2211 29.9978 41.2211C26.3257 41.2211 23.1916 43.345 21.6835 46.498L18.239 44.8511Z" fill="#A1A1A1"/>
<path opacity="0.5" d="M30 60C46.5685 60 60 46.569 60 30C60 13.431 46.5685 0 30 0C13.4315 0 0 13.431 0 30C0 46.569 13.4315 60 30 60Z" fill="url(#paint1_linear)"/>
<path d="M16.8348 27.422C19.258 27.422 21.2224 25.457 21.2224 23.034C21.2224 20.611 19.258 18.646 16.8348 18.646C14.4116 18.646 12.4473 20.611 12.4473 23.034C12.4473 25.457 14.4116 27.422 16.8348 27.422Z" fill="#A1A1A1"/>
<path d="M43.163 27.422C45.5861 27.422 47.5505 25.457 47.5505 23.034C47.5505 20.611 45.5861 18.646 43.163 18.646C40.7398 18.646 38.7754 20.611 38.7754 23.034C38.7754 25.457 40.7398 27.422 43.163 27.422Z" fill="#A1A1A1"/>
<path fill-rule="evenodd" clip-rule="evenodd" d="M18.239 44.8511C20.3506 40.4351 24.785 37.4031 29.9978 37.4031C35.2086 37.4031 39.7043 40.4891 41.7617 44.8611L38.307 46.4871C36.8543 43.4001 33.6718 41.2211 29.9978 41.2211C26.3257 41.2211 23.1916 43.345 21.6835 46.498L18.239 44.8511Z" fill="#A1A1A1"/>
<defs>
<linearGradient id="paint0_linear" x1="0" y1="30.219" x2="60" y2="30.219" gradientUnits="userSpaceOnUse">
<stop stop-color="#D9D9D9"/>
<stop offset="1" stop-color="#A1A1A1"/>
</linearGradient>
<linearGradient id="paint1_linear" x1="0" y1="30.219" x2="60" y2="30.219" gradientUnits="userSpaceOnUse">
<stop stop-color="#D9D9D9"/>
<stop offset="1" stop-color="#A1A1A1"/>
</linearGradient>
</defs>
</svg>
